<svg width="301" height="268" viewBox="0 0 301 268" fill="none" xmlns="http://www.w3.org/2000/svg">
<path d="M297.367 140.503C297.367 203.551 245.594 263.977 150.227 263.977C102.345 263.977 65.5835 251.045 40.8363 229.304C16.1286 207.597 3.08685 176.842 3.08685 140.503C3.08685 72.8437 68.3759 19.0869 150.227 19.0869C232.077 19.0869 297.367 72.8437 297.367 140.503Z" fill="#D7DB15" stroke="black" stroke-width="6.1737"/>
<g filter="url(#filter0_f_4:35)">
<ellipse cx="150.344" cy="143.169" rx="66.8818" ry="56.5923" fill="#EDEEB7"/>
</g>
<path d="M73.5 180.281C63 176.781 39.7 174.481 30.5 193.281" stroke="black"/>
<path d="M80 194.93C69.5 193.565 46.2 192.668 37 200" stroke="black"/>
<path d="M277.503 73.0329C281.276 61.3715 286.558 32.9039 277.503 12.3249C266.184 -13.3989 214.737 27.7591 207.534 38.0486" stroke="black" stroke-width="6.1737" stroke-linecap="round"/>
<path d="M248.692 56.5699C257.953 52.4541 262.069 46.9962 246.635 48.3383C231.2 49.6804 223.998 49.3673 229.142 38.0488C234.113 27.1127 257.976 8.17167 270.102 5.35742" stroke="black" stroke-width="6.1737" stroke-linecap="round" stroke-linejoin="round"/>
<path d="M22.9725 73.0329C19.1997 61.3715 13.9177 32.9039 22.9725 12.3249C34.291 -13.3989 85.7384 27.7591 92.9411 38.0486" stroke="black" stroke-width="6.1737" stroke-linecap="round"/>
<path d="M51.7829 56.5699C42.5223 52.4541 38.4065 46.9962 53.8408 48.3383C69.275 49.6804 76.4777 49.3673 71.3329 38.0488C66.362 27.1127 42.4992 8.17167 30.3735 5.35742" stroke="black" stroke-width="6.1737" stroke-linecap="round" stroke-linejoin="round"/>
<path d="M255.951 8.3623C234.663 15.132 214.644 33.8964 207.295 42.4325C202.851 47.1462 201.812 59.7596 201.848 65.4771H249.419C249.318 63.5972 248.751 59.7247 247.294 59.2735C245.472 58.7096 244.734 55.0222 246.73 54.0244C248.725 53.0266 254.061 50.6407 252.977 50.6407C252.109 50.6407 245.211 51.3345 241.871 51.6814C238.262 52.2016 233.709 51.8981 231.884 51.6814C227.158 50.785 225.176 48.1111 224.776 46.8862C221.48 33.7925 244.186 15.7479 255.951 8.3623Z" fill="#D1D2D7"/>
<path d="M44.7374 8.3623C66.0259 15.132 86.0449 33.8964 93.3933 42.4325C97.8372 47.1462 98.8763 59.7596 98.8404 65.4771H51.269C51.3702 63.5972 51.9371 59.7247 53.3947 59.2735C55.2167 58.7096 55.9542 55.0222 53.9586 54.0244C51.9631 53.0266 46.6272 50.6407 47.7117 50.6407C48.5794 50.6407 55.477 51.3345 58.8174 51.6814C62.4267 52.2016 66.979 51.8981 68.804 51.6814C73.5305 50.785 75.5127 48.1111 75.913 46.8862C79.2087 33.7925 56.5025 15.7479 44.7374 8.3623Z" fill="#D7DB15" fill-opacity="0.78"/>
<path d="M278.371 26.0559C281.321 44.7419 278.13 71.7327 275.594 68.183C273.059 64.6332 264.238 55.424 259.774 51.3513C260.392 48.3587 258.329 46.8019 257.339 46.3269C255.344 44.6643 248.829 44.9782 245.702 45.4136C234.492 46.2211 231.174 45.3542 230.917 44.8198C228.992 42.98 233.182 36.3547 235.28 33.8015C248.465 17.7555 263.12 10.6777 270.403 8.3623C274.441 9.78736 277.463 20.713 278.371 26.0559Z" fill="#D7DB15"/>
<path d="M22.3174 26.0559C19.3672 44.7419 22.5587 71.7327 25.0942 68.183C27.6297 64.6332 36.4504 55.424 40.9141 51.3513C40.2966 48.3587 42.3599 46.8019 43.3495 46.3269C45.3446 44.6643 51.8593 44.9782 54.9865 45.4136C66.1969 46.2211 69.5141 45.3542 69.7714 44.8198C71.6965 42.98 67.5064 36.3547 65.4084 33.8015C52.2235 17.7555 37.5689 10.6777 30.2855 8.3623C26.2479 9.78736 23.2255 20.713 22.3174 26.0559Z" fill="#F9ADAD"/>
<ellipse cx="86.5482" cy="106.74" rx="30.8219" ry="30.8219" fill="#DBEEFF"/>
<ellipse cx="86.5483" cy="106.74" rx="25.1889" ry="25.1889" fill="#84AAD7"/>
<circle cx="86.5482" cy="106.74" r="20.0875" fill="#231616"/>
<ellipse cx="99.8121" cy="90.2865" rx="6.82358" ry="6.82358" fill="white"/>
<ellipse cx="214.14" cy="106.74" rx="30.8219" ry="30.8219" fill="#DBEEFF"/>
<ellipse cx="214.141" cy="106.74" rx="25.1889" ry="25.1889" fill="#84AAD7"/>
<ellipse cx="214.14" cy="106.74" rx="20.0875" ry="20.0875" fill="#231616"/>
<ellipse cx="227.404" cy="90.2865" rx="6.82358" ry="6.82358" fill="white"/>
<path d="M140.298 155.54C138.519 157.734 138.12 159.259 138.291 156.27C138.959 156.121 139.631 155.87 140.298 155.54C141.422 154.153 143.098 152.5 145.53 151.551C147.257 149.841 148.743 148.036 149.774 146.784C149.774 146.784 152.13 149.455 154.993 151.977C156.611 152.784 157.863 153.887 158.823 154.925C159.863 155.583 160.868 156.073 161.755 156.27C161.755 159.532 161.129 157.417 158.823 154.925C157.551 154.12 156.225 153.062 154.993 151.977C153.559 151.261 151.837 150.778 149.774 150.778C148.153 150.778 146.747 151.076 145.53 151.551C143.934 153.132 142.133 154.633 140.298 155.54Z" fill="#ED8686"/>
<path d="M138.291 156.27C137.958 162.094 139.789 150.778 149.774 150.778C159.758 150.778 161.755 162.094 161.755 156.27C157.262 155.271 149.774 146.784 149.774 146.784C147.444 149.613 142.784 155.271 138.291 156.27Z" stroke="black"/>
<path d="M150.307 137.741C149.347 144.269 151.92 157.325 169.891 157.325" stroke="black" stroke-width="6.1737" stroke-linecap="round"/>
<path d="M149.755 137.741C150.715 144.269 148.142 157.325 130.171 157.325" stroke="black" stroke-width="6.1737" stroke-linecap="round"/>
<path d="M163.162 133.105C155.639 138.788 145.306 138.958 137.6 133.527L135.74 132.215C135.099 131.764 134.534 131.215 134.063 130.589C130.347 125.643 133.876 118.577 140.063 118.577L159.993 118.577C166.327 118.577 169.816 125.935 165.808 130.84C165.43 131.303 164.997 131.72 164.519 132.08L163.162 133.105Z" fill="#202329" stroke="black" stroke-width="6.1737"/>
<defs>
<filter id="filter0_f_4:35" x="42.3039" y="45.4187" width="216.079" height="195.501" filterUnits="userSpaceOnUse" color-interpolation-filters="sRGB">
<feFlood flood-opacity="0" result="BackgroundImageFix"/>
<feBlend mode="normal" in="SourceGraphic" in2="BackgroundImageFix" result="shape"/>
<feGaussianBlur stdDeviation="20.579" result="effect1_foregroundBlur_4:35"/>
</filter>
</defs>
</svg>
